<?xml version="1.0" encoding="utf-8"?>
<!-- Generator: Adobe Illustrator 23.0.6, SVG Export Plug-In . SVG Version: 6.00 Build 0)  -->
<svg version="1.1" id="Layer_1" xmlns="http://www.w3.org/2000/svg" xmlns:xlink="http://www.w3.org/1999/xlink" x="0px" y="0px"
	 viewBox="0 0 1024 1024" style="enable-background:new 0 0 1024 1024;" xml:space="preserve">
<style type="text/css">
	.st0{clip-path:url(#SVGID_2_);fill:url(#Background_Square_1_);}
	.st1{fill:none;}
	.st2{fill:#FFFFFF;}
</style>
<g id="Background">
	<g>
		<defs>
			<circle id="SVGID_1_" cx="512" cy="512" r="458"/>
		</defs>
		<clipPath id="SVGID_2_">
			<use xlink:href="#SVGID_1_"  style="display:none;overflow:visible;"/>
		</clipPath>
		
			<linearGradient id="Background_Square_1_" gradientUnits="userSpaceOnUse" x1="512" y1="-1412" x2="512" y2="-388" gradientTransform="matrix(1 0 0 -1 0 -388)">
			<stop  offset="0" style="stop-color:#006A1E"/>
			<stop  offset="1" style="stop-color:#3FFF91"/>
		</linearGradient>
		<rect id="Background_Square" class="st0" width="1024" height="1024"/>
	</g>
</g>
<path id="Moon_Fill_1_" class="st1" d="M640.3,666.8l78.2-119.2c0,0,24.2,18.1,39.6,18.1c16.8,0,38.3-18.1,38.3-18.1l105.1,162.8
	c30.9-60.1,47.3-125.9,47.3-197.7c0-242.1-196.1-437.8-437.5-437.8S74.9,269.6,74.9,511.4c0,183.6,113.8,340.4,274.3,404.9
	l229-357.9L640.3,666.8z"/>
<path id="Moon_and_the_Mountains" class="st2" d="M953.5,512.7c0-244.1-198.4-442.2-441.8-442.2c-118.2,0-229,45.7-312.2,128.9
	c-83,83-129,193.8-129,312c0,89.6,26.9,176.3,77.9,249.5c49.4,71.5,118.5,126.9,199.1,159.5l3.4,1.3l51.4-79.9
	c59.4-88.6,153.1-223.9,174.6-231.7c11.1-0.7,23.2,24.5,55.7,68.5L455.9,947.5h0.3c43-62.4,240.1-346.5,268.9-368
	c11.8,4.7,22.8,9.4,32.9,9.4c9.7,0,17.5-3.7,31.6-9.4c19.8,16.5,66.1,68.8,112.5,141.3c7.1-13.1,13.1-27.2,18.5-41.3
	C942.4,627.2,953.5,570.8,953.5,512.7z M797.7,540.9l-3.7,3.4c-0.3,0.3-20.8,16.8-35.6,16.8c-11.4,0-30.6-12.4-36.9-17.1l-3.7-3
	l-76.9,117.2l-62.1-108.4L347.5,910.5c-77.9-31.9-144-85.6-191.7-154.8C106.1,683.6,79.6,599,79.6,511.4
	c0-115.8,45-224.6,126.2-305.9s190-126.2,305.9-126.2c238.7,0,433.1,194.4,433.1,433.4c0,66.8-14.4,130.3-43.6,189L797.7,540.9z"/>
<g>
	<g>
		<path class="st2" d="M401.1,377.3c0,7.7,0,15.9-0.1,24.5c0,8.6-0.1,16.5-0.1,23.6c0,8.3,0,15.2,0.1,20.6c0,5.4,0.1,16,0.1,31.8
			c-1.6,0.5-8,1-19,1.6c-11.1,0.6-19.7,0.9-25.9,0.9c-20,0-38.5-2-55.4-5.9c-16.9-4-33.8-11.2-50.7-21.8
			c-12-7.7-21.6-17.5-28.8-29.3s-10.7-25.3-10.7-40.5c0-14.4,3.3-27.3,9.8-38.8c6.5-11.4,16.4-21.6,29.5-30.5
			c13.4-9.1,29.8-16.1,49.2-21.2c19.5-5.1,42.2-7.6,68.1-7.6c2.5,0,4.6,0,6.4,0.1c1.8,0,3.8,0.1,5.9,0.1l9.9,64.8
			c-1.7,0-3.7,0-5.9,0c-2.2,0-4.8,0-7.8,0c-3.6,0-10.2,0.2-19.7,0.7s-18.5,1.8-27,3.9c-11.7,2.8-21,7.2-27.8,13.4
			c-6.8,6.2-10.2,13.3-10.2,21.5c0,6.8,1.6,12.7,4.7,17.7s7,8.9,11.4,11.8c1.8,1.2,4.5,2.6,8.1,4.1s7.3,2.7,11.1,3.4
			c0-2.1,0-7.2,0-15.3c0-8.1-0.1-19.3-0.3-33.5h75.1V377.3z"/>
		<path class="st2" d="M588,414.6c-2,10.6-3.8,21.1-5.4,31.5c-1.6,10.4-3.2,21.9-4.7,34.3c-1.1,0-2.4,0-3.8,0c-1.4,0-3.2,0-5.4,0
			c-24.3,0-46.1-2.2-65.2-6.6s-36.1-11.6-50.6-21.7c-12.7-8.8-22.4-18.8-29-30.2c-6.7-11.3-10-24.5-10-39.3c0-14.6,3.3-27.6,9.9-39
			s16.4-21.5,29.4-30.3c15.2-10.3,32.7-17.7,52.5-22.1c19.8-4.4,40.9-6.7,63.1-6.7c1.3,0,2.4,0,3.2,0s2.2,0,4.1,0
			c1,7.4,2.2,17.1,3.8,29s3.6,24.2,6.1,37c-1.2,0-2.6,0-4.2,0c-1.6,0-3.1,0-4.5,0c-3.1,0-9.4,0.3-19.2,0.9
			c-9.7,0.6-18.3,1.7-25.8,3.4c-11.1,2.4-20,5.7-26.8,10s-10.2,10.3-10.2,17.9c0,7.2,3.5,12.9,10.4,17.4c7,4.4,15.9,7.8,26.8,10.2
			c6.8,1.5,15.3,2.6,25.6,3.3c10.3,0.7,16.7,1,19.2,1c1.9,0,3.8,0,5.8,0C584.8,414.6,586.5,414.6,588,414.6z"/>
		<path class="st2" d="M812.6,383.4c0,16.8-4.1,31.5-12.4,44.1c-8.3,12.6-19,22.8-32.1,30.5c-11.4,6.8-24.5,11.9-39.1,15.5
			s-32.3,5.4-53.1,5.4c-11.8,0-25.9-0.2-42.1-0.5c-16.3-0.3-25.3-0.5-27.3-0.5c0-1.5,0-10.5,0.1-26.9s0.1-41.7,0.1-75.8
			c0-11.3,0-25-0.1-41s-0.1-31.9-0.1-47.9c2.3,0,11.3-0.1,26.9-0.2c15.6-0.1,28.3-0.2,37.9-0.2c22.3,0,41.6,1.8,57.7,5.4
			c16.2,3.6,30.3,9.2,42.3,16.8c13.9,8.9,24.3,19.6,31,32.1C809.2,352.8,812.6,367.2,812.6,383.4z M732,379.7
			c0-5.7-1.4-11.1-4.1-16.2c-2.8-5.1-6.9-9.1-12.4-12c-4.3-2.3-8.8-3.8-13.6-4.6c-4.8-0.8-10-1.2-15.6-1.2c-0.5,0-1.1,0-2,0
			c0,2.7,0,7.7,0,15s0,13.6,0,18.8c0,6,0,11.7,0,17.2s0,12.5,0,21.2c0.3,0,0.5,0,0.6,0s0.4,0,0.6,0c3.7,0,8.5-0.6,14.2-1.8
			c5.8-1.2,10.2-2.6,13.2-4.2c7.9-4.3,13.1-9.1,15.5-14.4C730.8,392,732,386.1,732,379.7z"/>
	</g>
</g>
</svg>
